<svg width="24" height="24" viewBox="0 0 24 24" fill="none" xmlns="http://www.w3.org/2000/svg">
<g id="Icon/robot">
<path id="Union" fill-rule="evenodd" clip-rule="evenodd" d="M10.4948 5.71082C10.2514 5.61407 10.0278 5.46819 9.83914 5.2795C9.4793 4.91966 9.27512 4.43292 9.27056 3.92404C9.27056 3.41375 9.47327 2.92437 9.83409 2.56354C10.1949 2.20271 10.6843 2 11.1946 2C11.7049 2 12.1943 2.20271 12.5551 2.56354C12.9159 2.92437 13.1186 3.41375 13.1186 3.92404C13.1141 4.43292 12.9099 4.91966 12.5501 5.2795C12.3613 5.46828 12.1376 5.61421 11.8941 5.71096V7.25722C15.3982 7.36052 17.0745 8.29746 18.7508 11.0255C19.1846 11.7383 19.5018 12.8148 19.6962 14.2459C20.4 14.2725 21.0693 14.5638 21.5692 15.0636C22.094 15.5884 22.3888 16.3003 22.3888 17.0425C22.3888 17.7847 22.094 18.4966 21.5692 19.0214C21.1175 19.4731 20.5274 19.7544 19.8985 19.8241C19.8838 20.3025 19.8627 20.798 19.8352 21.3104C19.8175 21.7561 19.6301 22.1781 19.3115 22.4902C18.9929 22.8024 18.567 22.981 18.1211 22.9895H4.30295C3.85668 22.9903 3.42698 22.8205 3.10181 22.5149C2.77664 22.2092 2.5806 21.7908 2.55382 21.3454C2.52578 20.8195 2.50371 20.3123 2.48757 19.8238C1.85977 19.7536 1.27069 19.4724 0.819693 19.0214C0.294852 18.4966 0 17.7847 0 17.0425C0 16.3003 0.294852 15.5884 0.819693 15.0636C1.3074 14.5759 1.95659 14.2867 2.64159 14.2483C2.8072 12.8822 3.0821 11.8759 3.46337 11.2354C5.07076 8.54548 7.07803 7.3936 10.4948 7.26055V5.71082ZM5.86233 13.8092C6.25596 13.4156 6.78984 13.1944 7.34651 13.1944H15.0427C15.5994 13.1944 16.1332 13.4156 16.5269 13.8092C16.9205 14.2028 17.1416 14.7367 17.1416 15.2934V17.3923C17.1416 17.949 16.9205 18.4829 16.5269 18.8765C16.1332 19.2701 15.5994 19.4913 15.0427 19.4913H7.34651C6.78984 19.4913 6.25596 19.2701 5.86233 18.8765C5.4687 18.4829 5.24756 17.949 5.24756 17.3923V15.2934C5.24756 14.7367 5.4687 14.2028 5.86233 13.8092ZM15.5374 17.8871C15.6686 17.7558 15.7423 17.5779 15.7423 17.3923V15.2934C15.7423 15.1078 15.6686 14.9299 15.5374 14.7986C15.4062 14.6674 15.2282 14.5937 15.0427 14.5937H7.34651C7.16095 14.5937 6.983 14.6674 6.85179 14.7986C6.72057 14.9299 6.64686 15.1078 6.64686 15.2934V17.3923C6.64686 17.5779 6.72057 17.7558 6.85179 17.8871C6.983 18.0183 7.16095 18.092 7.34651 18.092H15.0427C15.2282 18.092 15.4062 18.0183 15.5374 17.8871ZM19.9236 18.4734C19.9293 17.4168 19.8995 16.4565 19.8353 15.5938C20.134 15.6443 20.4121 15.7865 20.6292 16.0036C20.9047 16.2791 21.0595 16.6528 21.0595 17.0425C21.0595 17.4322 20.9047 17.8059 20.6292 18.0814C20.4336 18.277 20.1886 18.4117 19.9236 18.4734ZM2.23634 15.6851C2.32818 15.647 2.42342 15.6185 2.52056 15.5998C2.46744 16.4535 2.44628 17.4111 2.45752 18.4716C2.38219 18.4536 2.30822 18.4297 2.23634 18.3999C2.05808 18.3261 1.89611 18.2179 1.75968 18.0814C1.62324 17.945 1.51502 17.783 1.44118 17.6048C1.36734 17.4265 1.32934 17.2354 1.32934 17.0425C1.32934 16.8495 1.36734 16.6585 1.44118 16.4802C1.51502 16.302 1.62324 16.14 1.75968 16.0036C1.89611 15.8671 2.05808 15.7589 2.23634 15.6851ZM4.68776 11.935C4.26797 12.6347 3.6033 14.7686 3.95313 21.2404C3.96183 21.327 4.00249 21.4072 4.06718 21.4655C4.13187 21.5237 4.21593 21.5557 4.30295 21.5552H18.1211C18.2081 21.5557 18.2922 21.5237 18.3568 21.4655C18.4215 21.4072 18.4622 21.327 18.4709 21.2404C18.7857 14.7686 18.0511 12.5297 17.5963 11.7601C16.0571 9.31135 14.6928 8.64668 11.1945 8.64668C7.87118 8.64668 6.12205 9.55623 4.68776 11.935Z" fill="#3A3A47"/>
<path id="Vector (Stroke)" d="M19.7631 2.18937C19.8843 2.06812 20.0488 2 20.2202 2C20.3917 2 20.5562 2.06812 20.6774 2.18937C20.7987 2.31062 20.8668 2.47508 20.8668 2.64656V4.37934H22.5996C22.7711 4.37934 22.9355 4.44746 23.0568 4.56871C23.178 4.68997 23.2461 4.85442 23.2461 5.0259C23.2461 5.19738 23.178 5.36183 23.0568 5.48308C22.9355 5.60434 22.7711 5.67246 22.5996 5.67246H20.8668V7.40524C20.8668 7.57672 20.7987 7.74117 20.6774 7.86243C20.5562 7.98368 20.3917 8.0518 20.2202 8.0518C20.0488 8.0518 19.8843 7.98368 19.7631 7.86243C19.6418 7.74117 19.5737 7.57672 19.5737 7.40524V5.67246H17.8409C17.6694 5.67246 17.505 5.60434 17.3837 5.48308C17.2625 5.36183 17.1943 5.19738 17.1943 5.0259C17.1943 4.85442 17.2625 4.68997 17.3837 4.56871C17.505 4.44746 17.6694 4.37934 17.8409 4.37934H19.5737V2.64656C19.5737 2.47508 19.6418 2.31062 19.7631 2.18937Z" fill="#3A3A47"/>
</g>
</svg>
