<svg width="16" height="17" viewBox="0 0 16 17" fill="none" xmlns="http://www.w3.org/2000/svg">
<g id="Icon/gallery">
<g id="vuesax/outline/gallery">
<g id="gallery">
<path id="Vector" d="M10.0002 16.141H6.00016C2.38016 16.141 0.833496 14.5943 0.833496 10.9743V6.97428C0.833496 3.35428 2.38016 1.80762 6.00016 1.80762H10.0002C13.6202 1.80762 15.1668 3.35428 15.1668 6.97428V10.9743C15.1668 14.5943 13.6202 16.141 10.0002 16.141ZM6.00016 2.80762C2.92683 2.80762 1.8335 3.90095 1.8335 6.97428V10.9743C1.8335 14.0476 2.92683 15.141 6.00016 15.141H10.0002C13.0735 15.141 14.1668 14.0476 14.1668 10.9743V6.97428C14.1668 3.90095 13.0735 2.80762 10.0002 2.80762H6.00016Z" fill="#6E6C8A"/>
<path id="Vector_2" d="M5.99984 8.14079C4.9865 8.14079 4.1665 7.32079 4.1665 6.30745C4.1665 5.29412 4.9865 4.47412 5.99984 4.47412C7.01317 4.47412 7.83317 5.29412 7.83317 6.30745C7.83317 7.32079 7.01317 8.14079 5.99984 8.14079ZM5.99984 5.47412C5.53984 5.47412 5.1665 5.84745 5.1665 6.30745C5.1665 6.76745 5.53984 7.14079 5.99984 7.14079C6.45984 7.14079 6.83317 6.76745 6.83317 6.30745C6.83317 5.84745 6.45984 5.47412 5.99984 5.47412Z" fill="#6E6C8A"/>
<path id="Vector_3" d="M1.78017 14.1077C1.62017 14.1077 1.46017 14.0277 1.36684 13.8877C1.21351 13.661 1.27351 13.3477 1.50684 13.1943L4.79351 10.9877C5.51351 10.501 6.50684 10.561 7.16017 11.1143L7.38017 11.3077C7.71351 11.5943 8.28017 11.5943 8.60684 11.3077L11.3802 8.92766C12.0868 8.32099 13.2002 8.32099 13.9135 8.92766L15.0002 9.86099C15.2068 10.041 15.2335 10.3543 15.0535 10.5677C14.8735 10.7743 14.5602 10.801 14.3468 10.621L13.2602 9.68766C12.9268 9.40099 12.3602 9.40099 12.0268 9.68766L9.25351 12.0677C8.54684 12.6743 7.43351 12.6743 6.72017 12.0677L6.50017 11.8743C6.19351 11.6143 5.68684 11.5877 5.34684 11.821L2.06017 14.0277C1.97351 14.081 1.87351 14.1077 1.78017 14.1077Z" fill="#6E6C8A"/>
</g>
</g>
</g>
</svg>
