<svg width="17" height="17" viewBox="0 0 17 17" fill="none" xmlns="http://www.w3.org/2000/svg">
<g id="Icon/robot" clip-path="url(#clip0_3370_1415)">
<path id="Union" fill-rule="evenodd" clip-rule="evenodd" d="M8.03362 3.448C7.87138 3.3835 7.72233 3.28625 7.59654 3.16045C7.35664 2.92056 7.22053 2.59607 7.21748 2.25682C7.21748 1.91662 7.35262 1.59037 7.59318 1.34981C7.83373 1.10926 8.15999 0.974121 8.50018 0.974121C8.84037 0.974121 9.16663 1.10926 9.40718 1.34981C9.64773 1.59037 9.78287 1.91662 9.78287 2.25682C9.77983 2.59607 9.64371 2.92056 9.40382 3.16045C9.27796 3.28631 9.12883 3.3836 8.96649 3.4481V4.47896C11.3026 4.54783 12.4201 5.17245 13.5376 6.99114C13.8268 7.4663 14.0383 8.18393 14.1679 9.13797C14.6371 9.15573 15.0833 9.34989 15.4165 9.6831C15.7664 10.033 15.963 10.5075 15.963 11.0024C15.963 11.4972 15.7664 11.9718 15.4165 12.3216C15.1154 12.6227 14.722 12.8103 14.3028 12.8568C14.293 13.1758 14.2789 13.5061 14.2606 13.8477C14.2488 14.1448 14.1239 14.4262 13.9114 14.6343C13.699 14.8424 13.4151 14.9615 13.1178 14.9672H3.90575C3.60823 14.9677 3.32176 14.8545 3.10498 14.6507C2.8882 14.447 2.75751 14.168 2.73966 13.871C2.72096 13.5205 2.70625 13.1823 2.69549 12.8566C2.27696 12.8098 1.88424 12.6223 1.58357 12.3216C1.23368 11.9718 1.03711 11.4972 1.03711 11.0024C1.03711 10.5075 1.23368 10.033 1.58357 9.6831C1.90872 9.35795 2.34151 9.16521 2.79818 9.13957C2.90859 8.22887 3.09185 7.55808 3.34603 7.13107C4.41762 5.3378 5.7558 4.56988 8.03362 4.48118V3.448ZM5.93479 8.43707H11.0656C11.4367 8.43707 11.7926 8.5845 12.055 8.84692C12.3174 9.10934 12.4649 9.46525 12.4649 9.83637V11.2357C12.4649 11.6068 12.3174 11.9627 12.055 12.2251C11.7926 12.4876 11.4367 12.635 11.0656 12.635H5.93479C5.56367 12.635 5.20775 12.4876 4.94533 12.2251C4.68291 11.9627 4.53549 11.6068 4.53549 11.2357V9.83637C4.53549 9.46525 4.68291 9.10934 4.94533 8.84692C5.20775 8.5845 5.56367 8.43707 5.93479 8.43707ZM11.3954 11.5655C11.4829 11.478 11.532 11.3594 11.532 11.2357V9.83637C11.532 9.71267 11.4829 9.59403 11.3954 9.50655C11.3079 9.41908 11.1893 9.36994 11.0656 9.36994H5.93479C5.81108 9.36994 5.69244 9.41908 5.60497 9.50655C5.5175 9.59403 5.46835 9.71267 5.46835 9.83637V11.2357C5.46835 11.3594 5.5175 11.478 5.60497 11.5655C5.69244 11.653 5.81108 11.7021 5.93479 11.7021H11.0656C11.1893 11.7021 11.3079 11.653 11.3954 11.5655ZM14.3195 11.9563C14.3233 11.2519 14.3035 10.6117 14.2606 10.0366C14.4598 10.0703 14.6452 10.165 14.7899 10.3098C14.9736 10.4934 15.0768 10.7426 15.0768 11.0024C15.0768 11.2622 14.9736 11.5113 14.7899 11.695C14.6595 11.8254 14.4962 11.9152 14.3195 11.9563ZM2.528 10.0974C2.58923 10.0721 2.65273 10.053 2.71749 10.0406C2.68208 10.6097 2.66797 11.2481 2.67546 11.9551C2.62524 11.9431 2.57593 11.9272 2.528 11.9073C2.40916 11.8581 2.30118 11.7859 2.21023 11.695C2.11927 11.604 2.04712 11.4961 1.9979 11.3772C1.94867 11.2584 1.92333 11.131 1.92333 11.0024C1.92333 10.8737 1.94867 10.7464 1.9979 10.6275C2.04712 10.5087 2.11927 10.4007 2.21023 10.3098C2.30118 10.2188 2.40916 10.1466 2.528 10.0974ZM4.16229 7.59751C3.88243 8.06394 3.43931 9.48656 3.67253 13.8011C3.67833 13.8588 3.70544 13.9123 3.74857 13.9511C3.79169 13.9899 3.84773 14.0113 3.90575 14.011H13.1178C13.1758 14.0113 13.2319 13.9899 13.275 13.9511C13.3181 13.9123 13.3452 13.8588 13.351 13.8011C13.5609 9.48656 13.0712 7.99397 12.768 7.4809C11.7418 5.84838 10.8323 5.40526 8.50013 5.40526C6.28456 5.40526 5.11848 6.01163 4.16229 7.59751Z" />
</g>
<defs>
<clipPath id="clip0_3370_1415">
<rect width="16" height="16" fill="white" transform="translate(0.5 0.974121)"/>
</clipPath>
</defs>
</svg>
