<svg width="25" height="24" viewBox="0 0 25 24" fill="none" xmlns="http://www.w3.org/2000/svg">
<path fill-rule="evenodd" clip-rule="evenodd" d="M13.2333 13.578L14.0376 12.8311L13.2333 12.0843L9.44604 8.29702C9.3747 8.22812 9.31781 8.14571 9.27867 8.05459C9.23952 7.96347 9.21892 7.86547 9.21806 7.76631C9.2172 7.66714 9.2361 7.5688 9.27365 7.47701C9.3112 7.38523 9.36666 7.30184 9.43678 7.23172C9.5069 7.16159 9.59029 7.10614 9.68207 7.06858C9.77386 7.03103 9.8722 7.01214 9.97137 7.013C10.0705 7.01386 10.1685 7.03446 10.2597 7.0736C10.3508 7.11275 10.4332 7.16964 10.5021 7.24097L15.5642 12.3031C15.7042 12.4432 15.7829 12.6331 15.7829 12.8311C15.7829 13.0292 15.7042 13.2191 15.5642 13.3592L10.5013 18.422C10.4324 18.4934 10.35 18.5503 10.2589 18.5894C10.1678 18.6285 10.0698 18.6491 9.97062 18.65C9.87146 18.6509 9.77311 18.632 9.68133 18.5944C9.58954 18.5569 9.50616 18.5014 9.43603 18.4313C9.36591 18.3612 9.31045 18.2778 9.2729 18.186C9.23535 18.0942 9.21645 17.9959 9.21731 17.8967C9.21818 17.7975 9.23878 17.6995 9.27792 17.6084C9.31706 17.5173 9.37396 17.4349 9.44529 17.366L13.2333 13.578Z" fill="#6D6C88"/>
</svg>
