<svg width="25" height="24" viewBox="0 0 25 24" fill="none" xmlns="http://www.w3.org/2000/svg">
<g id="vuesax/outline/arrow-left">
<g id="vuesax/outline/arrow-left_2">
<g id="arrow-left">
<path id="Vector" d="M11.2335 18.8191C11.0435 18.8191 10.8535 18.7491 10.7035 18.5991L4.63352 12.5291C4.34352 12.2391 4.34352 11.7591 4.63352 11.4691L10.7035 5.39914C10.9935 5.10914 11.4735 5.10914 11.7635 5.39914C12.0535 5.68914 12.0535 6.16914 11.7635 6.45914L6.22352 11.9991L11.7635 17.5391C12.0535 17.8291 12.0535 18.3091 11.7635 18.5991C11.6235 18.7491 11.4235 18.8191 11.2335 18.8191Z" fill="#6E6C8A"/>
<path id="Vector_2" d="M19.9293 12.749H5.23865C4.88077 12.749 4.58398 12.409 4.58398 11.999C4.58398 11.589 4.88077 11.249 5.23865 11.249H19.9293C20.2872 11.249 20.584 11.589 20.584 11.999C20.584 12.409 20.2872 12.749 19.9293 12.749Z" fill="#6E6C8A"/>
</g>
</g>
</g>
</svg>
