<svg width="17" height="17" viewBox="0 0 17 17" fill="none" xmlns="http://www.w3.org/2000/svg">
<path fill-rule="evenodd" clip-rule="evenodd" d="M2.86633 15.0476H3.97028C4.57997 15.0476 5.07422 14.498 5.07422 13.8199V3.18004C5.07422 2.50201 4.57997 1.95236 3.97028 1.95236H2.86633C2.25664 1.95236 1.76239 2.50201 1.76239 3.18004V13.8199C1.76239 14.498 2.25664 15.0476 2.86633 15.0476ZM9.12201 12.183H8.01807C7.40838 12.183 6.91412 11.6334 6.91412 10.9553V6.18004C6.91412 5.50201 7.40838 4.95236 8.01807 4.95236H9.12201C9.7317 4.95236 10.226 5.50201 10.226 6.18004V10.9553C10.226 11.6334 9.7317 12.183 9.12201 12.183ZM13.1698 10.0709H14.2737C14.8834 10.0709 15.3777 9.52122 15.3777 8.84319V7.93248C15.3777 7.25445 14.8834 6.7048 14.2737 6.7048H13.1698C12.5601 6.7048 12.0659 7.25445 12.0659 7.93248V8.84319C12.0659 9.52122 12.5601 10.0709 13.1698 10.0709Z" fill="#28B446"/>
</svg>
