<svg width="32" height="32" viewBox="0 0 32 32" fill="none" xmlns="http://www.w3.org/2000/svg">
<rect x="0.978827" y="1.12427" width="30.057" height="30.057" rx="15.0285" fill="#28B446"/>
<rect x="0.978827" y="1.12427" width="30.057" height="30.057" rx="15.0285" stroke="white" stroke-width="1.43129"/>
<g clip-path="url(#clip0_3951_6724)">
<rect width="20.038" height="20.038" transform="translate(5.98828 6.13377)" fill="white" fill-opacity="0.01"/>
<path d="M10.5816 22.3184C10.0757 22.3184 9.60311 22.1443 9.26314 21.8209C8.83196 21.4146 8.62466 20.801 8.69929 20.1376L9.00609 17.4511C9.06414 16.9453 9.37094 16.2736 9.72749 15.9088L16.5352 8.70309C18.235 6.90374 20.0095 6.85399 21.8088 8.55383C23.6082 10.2537 23.6579 12.0281 21.9581 13.8275L15.1504 21.0332C14.8021 21.4063 14.1554 21.7546 13.6496 21.8375L10.9796 22.2935C10.8386 22.3018 10.7142 22.3184 10.5816 22.3184ZM19.1969 8.54554C18.5584 8.54554 18.0028 8.94355 17.439 9.54057L10.6313 16.7545C10.4655 16.9287 10.2748 17.3433 10.2416 17.5837L9.93479 20.2703C9.90162 20.5439 9.96795 20.7678 10.1172 20.9088C10.2665 21.0498 10.4903 21.0995 10.764 21.058L13.434 20.602C13.6744 20.5605 14.0725 20.3449 14.2383 20.1708L21.046 12.9651C22.0742 11.8706 22.4473 10.859 20.9465 9.44936C20.2831 8.81088 19.711 8.54554 19.1969 8.54554Z" fill="white"/>
<path d="M20.366 15.2122C20.3494 15.2122 20.3246 15.2122 20.308 15.2122C17.7209 14.9552 15.6396 12.99 15.2416 10.4195C15.1919 10.0795 15.424 9.76445 15.764 9.70641C16.104 9.65666 16.4191 9.88883 16.4771 10.2288C16.7922 12.2354 18.4174 13.7777 20.4406 13.9767C20.7806 14.0099 21.0294 14.3167 20.9962 14.6567C20.9547 14.9718 20.6811 15.2122 20.366 15.2122Z" fill="white"/>
<path d="M23.4009 24.9967H8.47541C8.13544 24.9967 7.85352 24.7148 7.85352 24.3748C7.85352 24.0348 8.13544 23.7529 8.47541 23.7529H23.4009C23.7408 23.7529 24.0228 24.0348 24.0228 24.3748C24.0228 24.7148 23.7408 24.9967 23.4009 24.9967Z" fill="white"/>
</g>
<defs>
<clipPath id="clip0_3951_6724">
<rect width="20.038" height="20.038" fill="white" transform="translate(5.98828 6.13377)"/>
</clipPath>
</defs>
</svg>
