<svg width="25" height="24" viewBox="0 0 25 24" fill="none" xmlns="http://www.w3.org/2000/svg">
<g id="Frame 1597883463">
<g id="Frame 1597882985">
<rect x="0.5" width="24" height="24" rx="12" fill="#E3E3E9"/>
<g id="Icon/send" clip-path="url(#clip0_3473_44664)">
<path id="Subtract" fill-rule="evenodd" clip-rule="evenodd" d="M17.0177 9.01094C17.302 8.15328 16.4546 7.30593 15.597 7.59019C13.4332 8.30737 10.2849 9.32798 8.08757 10.0377C7.16876 10.3345 7.08588 11.6027 7.95671 12.0198C9.00394 12.5214 10.1304 13.0625 10.7551 13.3678L13.8607 10.2334C14.0405 10.0519 14.3335 10.0505 14.5151 10.2304C14.6967 10.4103 14.698 10.7033 14.5181 10.8848L11.3507 14.0816C11.6575 14.7145 12.1379 15.7149 12.5883 16.6546C13.0055 17.525 14.2726 17.4415 14.5693 16.523C15.2791 14.3255 16.3002 11.1756 17.0177 9.01094Z" fill="white"/>
</g>
</g>
</g>
<defs>
<clipPath id="clip0_3473_44664">
<rect width="16.0001" height="16.0001" fill="white" transform="translate(4.5 4)"/>
</clipPath>
</defs>
</svg>
