<svg width="17" height="17" viewBox="0 0 17 17" fill="none" xmlns="http://www.w3.org/2000/svg">
<g id="Icon/robot" clip-path="url(#clip0_4041_2687)">
<path id="Union" fill-rule="evenodd" clip-rule="evenodd" d="M8.03362 3.44804C7.87134 3.38354 7.72225 3.28627 7.59644 3.16045C7.35654 2.92056 7.22042 2.59607 7.21738 2.25682C7.21738 1.91662 7.35252 1.59037 7.59307 1.34981C7.83363 1.10926 8.15988 0.974121 8.50008 0.974121C8.84027 0.974121 9.16653 1.10926 9.40708 1.34981C9.64763 1.59037 9.78277 1.91662 9.78277 2.25682C9.77973 2.59607 9.64361 2.92056 9.40371 3.16045C9.27789 3.28628 9.12879 3.38356 8.96649 3.44806V4.47896C11.3026 4.54783 12.4201 5.17246 13.5376 6.99114C13.8268 7.4663 14.0383 8.18393 14.1679 9.13797C14.6371 9.15573 15.0833 9.34988 15.4165 9.6831C15.7664 10.033 15.963 10.5075 15.963 11.0024C15.963 11.4972 15.7664 11.9718 15.4165 12.3216C15.1154 12.6228 14.722 12.8103 14.3028 12.8568C14.293 13.1758 14.2789 13.5061 14.2606 13.8477C14.2487 14.1448 14.1238 14.4262 13.9114 14.6343C13.699 14.8424 13.4151 14.9615 13.1178 14.9672H3.90573C3.60821 14.9677 3.32174 14.8545 3.10496 14.6507C2.88818 14.447 2.75749 14.168 2.73964 13.871C2.72094 13.5205 2.70623 13.1823 2.69547 12.8566C2.27695 12.8098 1.88423 12.6223 1.58357 12.3216C1.23368 11.9718 1.03711 11.4972 1.03711 11.0024C1.03711 10.5075 1.23368 10.033 1.58357 9.6831C1.90871 9.35796 2.3415 9.16522 2.79816 9.13957C2.90857 8.22887 3.09183 7.55808 3.34601 7.13107C4.4176 5.33779 5.75579 4.56988 8.03362 4.48118V3.44804ZM5.93469 8.43707H11.0655C11.4366 8.43707 11.7925 8.5845 12.0549 8.84692C12.3173 9.10934 12.4648 9.46525 12.4648 9.83637V11.2357C12.4648 11.6068 12.3173 11.9627 12.0549 12.2251C11.7925 12.4876 11.4366 12.635 11.0655 12.635H5.93469C5.56357 12.635 5.20765 12.4876 4.94523 12.2251C4.68281 11.9627 4.53538 11.6068 4.53538 11.2357V9.83637C4.53538 9.46525 4.68281 9.10934 4.94523 8.84692C5.20765 8.5845 5.56357 8.43707 5.93469 8.43707ZM11.3953 11.5655C11.4828 11.478 11.5319 11.3594 11.5319 11.2357V9.83637C11.5319 9.71267 11.4828 9.59403 11.3953 9.50655C11.3078 9.41908 11.1892 9.36994 11.0655 9.36994H5.93469C5.81098 9.36994 5.69234 9.41908 5.60487 9.50655C5.51739 9.59403 5.46825 9.71267 5.46825 9.83637V11.2357C5.46825 11.3594 5.51739 11.478 5.60487 11.5655C5.69234 11.653 5.81098 11.7021 5.93469 11.7021H11.0655C11.1892 11.7021 11.3078 11.653 11.3953 11.5655ZM14.3195 11.9564C14.3233 11.2519 14.3035 10.6117 14.2606 10.0366C14.4598 10.0703 14.6452 10.165 14.7899 10.3098C14.9736 10.4934 15.0768 10.7426 15.0768 11.0024C15.0768 11.2622 14.9736 11.5113 14.7899 11.695C14.6595 11.8254 14.4962 11.9152 14.3195 11.9564ZM2.528 10.0974C2.58923 10.0721 2.65271 10.053 2.71747 10.0406C2.68206 10.6097 2.66795 11.2481 2.67543 11.9551C2.62522 11.9431 2.57592 11.9272 2.528 11.9073C2.40916 11.8581 2.30118 11.7859 2.21023 11.695C2.11927 11.604 2.04712 11.4961 1.9979 11.3772C1.94867 11.2584 1.92333 11.131 1.92333 11.0024C1.92333 10.8737 1.94867 10.7464 1.9979 10.6275C2.04712 10.5087 2.11927 10.4007 2.21023 10.3098C2.30118 10.2188 2.40916 10.1466 2.528 10.0974ZM4.16227 7.59751C3.88241 8.06394 3.43929 9.48656 3.67251 13.8011C3.67831 13.8588 3.70542 13.9123 3.74855 13.9511C3.79167 13.9899 3.84771 14.0113 3.90573 14.011H13.1178C13.1758 14.0113 13.2319 13.9899 13.275 13.9511C13.3181 13.9123 13.3452 13.8588 13.351 13.8011C13.5609 9.48656 13.0712 7.99397 12.768 7.4809C11.7418 5.84838 10.8323 5.40526 8.50011 5.40526C6.28454 5.40526 5.11846 6.01163 4.16227 7.59751Z" fill="#28B446"/>
</g>
<defs>
<clipPath id="clip0_4041_2687">
<rect width="16" height="16" fill="white" transform="translate(0.5 0.974121)"/>
</clipPath>
</defs>
</svg>
