<svg width="17" height="17" viewBox="0 0 17 17" fill="none" xmlns="http://www.w3.org/2000/svg">
<g id="Icon/gallery">
<g id="vuesax/outline/gallery">
<g id="gallery">
<path id="Vector" d="M10.4999 16.141H6.49992C2.87992 16.141 1.33325 14.5943 1.33325 10.9743V6.97428C1.33325 3.35428 2.87992 1.80762 6.49992 1.80762H10.4999C14.1199 1.80762 15.6666 3.35428 15.6666 6.97428V10.9743C15.6666 14.5943 14.1199 16.141 10.4999 16.141ZM6.49992 2.80762C3.42659 2.80762 2.33325 3.90095 2.33325 6.97428V10.9743C2.33325 14.0476 3.42659 15.141 6.49992 15.141H10.4999C13.5733 15.141 14.6666 14.0476 14.6666 10.9743V6.97428C14.6666 3.90095 13.5733 2.80762 10.4999 2.80762H6.49992Z" fill="#28B446"/>
<path id="Vector_2" d="M6.50008 8.14079C5.48675 8.14079 4.66675 7.32079 4.66675 6.30745C4.66675 5.29412 5.48675 4.47412 6.50008 4.47412C7.51342 4.47412 8.33342 5.29412 8.33342 6.30745C8.33342 7.32079 7.51342 8.14079 6.50008 8.14079ZM6.50008 5.47412C6.04008 5.47412 5.66675 5.84745 5.66675 6.30745C5.66675 6.76745 6.04008 7.14079 6.50008 7.14079C6.96008 7.14079 7.33342 6.76745 7.33342 6.30745C7.33342 5.84745 6.96008 5.47412 6.50008 5.47412Z" fill="#28B446"/>
<path id="Vector_3" d="M2.27993 14.1077C2.11993 14.1077 1.95993 14.0277 1.8666 13.8877C1.71326 13.661 1.77326 13.3477 2.0066 13.1943L5.29326 10.9877C6.01326 10.501 7.0066 10.561 7.65993 11.1143L7.87993 11.3077C8.21326 11.5943 8.77993 11.5943 9.1066 11.3077L11.8799 8.92766C12.5866 8.32099 13.6999 8.32099 14.4133 8.92766L15.4999 9.86099C15.7066 10.041 15.7333 10.3543 15.5533 10.5677C15.3733 10.7743 15.0599 10.801 14.8466 10.621L13.7599 9.68766C13.4266 9.40099 12.8599 9.40099 12.5266 9.68766L9.75326 12.0677C9.0466 12.6743 7.93326 12.6743 7.21993 12.0677L6.99993 11.8743C6.69326 11.6143 6.1866 11.5877 5.8466 11.821L2.55993 14.0277C2.47326 14.081 2.37326 14.1077 2.27993 14.1077Z" fill="#28B446"/>
</g>
</g>
</g>
</svg>
