<svg width="21" height="21" viewBox="0 0 21 21" fill="none" xmlns="http://www.w3.org/2000/svg">
<g clip-path="url(#clip0_5139_7023)">
<rect width="20.038" height="20.038" transform="translate(0.961914 0.480957)" fill="white" fill-opacity="0.01"/>
<path fill-rule="evenodd" clip-rule="evenodd" d="M16.7326 3.36526C15.124 1.75663 13.5485 1.71517 11.8984 3.36526L10.8951 4.36858C10.8122 4.4515 10.779 4.58417 10.8122 4.70026C11.4423 6.89762 13.2002 8.6555 15.3976 9.28569C15.4308 9.29398 15.4639 9.30227 15.4971 9.30227C15.5883 9.30227 15.6712 9.26911 15.7376 9.20277L16.7326 8.19945C17.5535 7.38684 17.9515 6.59911 17.9515 5.80308C17.9598 4.98218 17.5618 4.18616 16.7326 3.36526ZM18.3744 18.7219H3.44892C3.10895 18.7219 2.82703 18.44 2.82703 18.1C2.82703 17.7601 3.10895 17.4781 3.44892 17.4781H18.3744C18.7143 17.4781 18.9963 17.7601 18.9963 18.1C18.9963 18.44 18.7143 18.7219 18.3744 18.7219ZM13.2085 9.67547C13.4324 9.80814 13.6646 9.92423 13.905 10.0403C14.2287 10.1806 14.3224 10.6097 14.073 10.8591L9.40253 15.5296C9.30303 15.6374 9.09573 15.7369 8.94647 15.7617L5.76238 16.2095C5.66287 16.2261 5.56337 16.2344 5.46387 16.2344C5.0161 16.2344 4.60151 16.0768 4.303 15.7866C3.95474 15.4301 3.79719 14.8994 3.88011 14.3355L4.32787 11.1597C4.35275 11.0188 4.45225 10.8115 4.56005 10.7037L9.22281 6.04091C9.47731 5.78641 9.90539 5.8833 10.0576 6.20945C10.1737 6.44162 10.2898 6.6655 10.4224 6.88939C10.5302 7.07181 10.6463 7.25423 10.7458 7.37861C10.862 7.55671 10.9926 7.71311 11.0769 7.81406C11.0829 7.82121 11.0886 7.82808 11.0941 7.83467C11.1058 7.84975 11.1169 7.86416 11.1272 7.87768C11.1682 7.93106 11.1986 7.97069 11.2185 7.98392C11.4921 8.3156 11.7989 8.61411 12.0725 8.84628C12.1389 8.91261 12.1969 8.96237 12.2135 8.97066C12.371 9.10333 12.5369 9.236 12.6778 9.32721C12.852 9.45159 13.0261 9.56768 13.2085 9.67547Z" fill="#28B446"/>
</g>
<defs>
<clipPath id="clip0_5139_7023">
<rect width="20.038" height="20.038" fill="white" transform="translate(0.961914 0.480957)"/>
</clipPath>
</defs>
</svg>
