<svg width="17" height="18" viewBox="0 0 17 18" fill="none" xmlns="http://www.w3.org/2000/svg">
<path d="M13.4391 5.93902L12.4255 6.95254L10.3849 4.91189L11.3984 3.89836C11.6841 3.61267 12.0514 3.47662 12.4187 3.47662C12.7861 3.47662 13.1534 3.61267 13.4391 3.89836C14.0037 4.46294 14.0037 5.37443 13.4391 5.93902Z" fill="#28B446"/>
<path d="M11.9493 7.43549L4.59617 14.7819C4.03159 15.3464 3.1201 15.3464 2.55552 14.7819C1.99093 14.2173 1.99093 13.3058 2.55552 12.7412L9.90868 5.39484L11.9493 7.43549Z" fill="#28B446"/>
<path d="M6.94298 3.21814L7.22187 2.27263C7.24908 2.1842 7.22187 2.08897 7.16065 2.02095C7.09943 1.95293 6.9906 1.92572 6.90217 1.95293L5.95666 2.23182L5.01116 1.95293C4.92273 1.92572 4.8275 1.95293 4.75948 2.01415C4.69146 2.08217 4.67105 2.1774 4.69826 2.26583L4.97035 3.21814L4.69146 4.16364C4.66425 4.25207 4.69146 4.3473 4.75267 4.41532C4.8207 4.48334 4.91593 4.50375 5.00436 4.47654L5.95666 4.20445L6.90217 4.48334C6.92938 4.49015 6.94978 4.49695 6.97699 4.49695C7.04501 4.49695 7.10623 4.46974 7.16065 4.42212C7.22867 4.3541 7.24908 4.25887 7.22187 4.17044L6.94298 3.21814Z" fill="#28B446"/>
<path d="M4.22215 7.29944L4.50104 6.35393C4.52825 6.2655 4.50104 6.17027 4.43982 6.10225C4.3718 6.03423 4.27657 6.01382 4.18814 6.04103L3.23584 6.31312L2.29033 6.03423C2.2019 6.00702 2.10667 6.03423 2.03865 6.09545C1.97063 6.16347 1.95022 6.2587 1.97743 6.34713L2.24952 7.29944L1.97063 8.24494C1.94342 8.33337 1.97063 8.4286 2.03185 8.49662C2.09987 8.56464 2.1951 8.58505 2.28353 8.55784L3.22903 8.27895L4.17454 8.55784C4.19495 8.56464 4.22215 8.56464 4.24936 8.56464C4.31739 8.56464 4.37861 8.53743 4.43302 8.48982C4.50104 8.4218 4.52145 8.32657 4.49424 8.23814L4.22215 7.29944Z" fill="#28B446"/>
<path d="M14.4254 10.7005L14.7043 9.75504C14.7315 9.66661 14.7043 9.57138 14.643 9.50336C14.575 9.43534 14.4798 9.41493 14.3914 9.44214L13.4458 9.72103L12.5003 9.44214C12.4119 9.41493 12.3167 9.44214 12.2487 9.50336C12.1806 9.57138 12.1602 9.66661 12.1874 9.75504L12.4663 10.7005L12.1874 11.6461C12.1602 11.7345 12.1874 11.8297 12.2487 11.8977C12.3167 11.9658 12.4119 11.9862 12.5003 11.959L13.4458 11.6801L14.3914 11.959C14.4118 11.9658 14.439 11.9658 14.4662 11.9658C14.5342 11.9658 14.5954 11.9385 14.6498 11.8909C14.7179 11.8229 14.7383 11.7277 14.7111 11.6392L14.4254 10.7005Z" fill="#28B446"/>
</svg>
