<svg width="24" height="24" viewBox="0 0 24 24" fill="none" xmlns="http://www.w3.org/2000/svg">
<g id="Icon/history">
<path id="Vector" d="M15.4605 12.2502H12.2801V9.0697C12.2801 8.76267 12.0293 8.51189 11.7222 8.51189C11.4152 8.51189 11.1644 8.76267 11.1644 9.0697V12.808C11.1644 13.115 11.4152 13.3658 11.7222 13.3658H15.4605C15.7676 13.3658 16.0183 13.115 16.0183 12.808C16.0183 12.5009 15.7676 12.2502 15.4605 12.2502Z" fill="#3A3A47" stroke="#3A3A47" stroke-width="0.3"/>
<path id="Ellipse 1237 (Stroke)" fill-rule="evenodd" clip-rule="evenodd" d="M12.4273 3.59368C7.8103 3.59368 4.06748 7.33649 4.06748 11.9535C4.06748 12.3401 3.75408 12.6535 3.36748 12.6535C2.98088 12.6535 2.66748 12.3401 2.66748 11.9535C2.66748 6.56329 7.0371 2.19368 12.4273 2.19368C17.8175 2.19368 22.1871 6.56329 22.1871 11.9535C22.1871 17.3437 17.8175 21.7133 12.4273 21.7133C8.76119 21.7133 5.56821 19.6916 3.90071 16.7057C3.71222 16.3681 3.83304 15.9417 4.17057 15.7532C4.5081 15.5647 4.93453 15.6855 5.12303 16.0231C6.55322 18.5841 9.28879 20.3133 12.4273 20.3133C17.0443 20.3133 20.7871 16.5705 20.7871 11.9535C20.7871 7.33649 17.0443 3.59368 12.4273 3.59368Z" fill="#3A3A47"/>
<path id="Union" d="M5.22308 11.928C5.33621 11.9257 5.43813 11.9893 5.48719 12.0913C5.53312 12.1929 5.51617 12.3141 5.44162 12.399L3.76641 14.2453C3.71573 14.3018 3.64567 14.3323 3.57203 14.3381C3.55688 14.3368 3.544 14.3386 3.53189 14.3375C3.47149 14.3322 3.41557 14.309 3.36764 14.2653L1.45032 12.528C1.3657 12.4504 1.33603 12.3318 1.3761 12.2225C1.41596 12.1163 1.51721 12.0432 1.63021 12.0409L5.22308 11.928Z" fill="#3A3A47"/>
</g>
</svg>
