<svg width="25" height="24" viewBox="0 0 25 24" fill="none" xmlns="http://www.w3.org/2000/svg">
<g id="Icon/ok">
<path id="Vector" fill-rule="evenodd" clip-rule="evenodd" d="M10.0705 14.266L10.8173 14.9449L11.5642 14.266L19.1286 6.70164C19.1974 6.63031 19.2799 6.57341 19.371 6.53427C19.4621 6.49513 19.5601 6.47452 19.6593 6.47366C19.7584 6.4728 19.8568 6.4917 19.9486 6.52925C20.0403 6.5668 20.1237 6.62226 20.1939 6.69238C20.264 6.7625 20.3194 6.84589 20.357 6.93767C20.3945 7.02946 20.4134 7.1278 20.4126 7.22697C20.4117 7.32614 20.3911 7.42414 20.352 7.51526C20.3128 7.60637 20.2559 7.68878 20.1846 7.75768L11.3454 16.5969C11.2053 16.7369 11.0154 16.8155 10.8173 16.8155C10.6193 16.8155 10.4294 16.7369 10.2893 16.5969L5.22643 11.534C5.15509 11.4651 5.0982 11.3827 5.05906 11.2916C5.01991 11.2004 4.99931 11.1024 4.99845 11.0033C4.99759 10.9041 5.01649 10.8058 5.05404 10.714C5.09159 10.6222 5.14705 10.5388 5.21717 10.4687C5.28729 10.3986 5.37068 10.3431 5.46247 10.3056C5.55425 10.268 5.65259 10.2491 5.75176 10.25C5.85093 10.2508 5.94893 10.2714 6.04005 10.3106C6.13116 10.3497 6.21357 10.4066 6.28247 10.4779L10.0705 14.266Z" fill="#28B446"/>
</g>
</svg>
