<svg width="31" height="30" viewBox="0 0 31 30" fill="none" xmlns="http://www.w3.org/2000/svg">
<g id="Icon/phone">
<path id="Union" fill-rule="evenodd" clip-rule="evenodd" d="M4.67577 23.744L4.67509 23.7464L4.2999 25.0591C4.25292 25.223 4.25161 25.3967 4.2961 25.5613C4.34059 25.7259 4.4292 25.8753 4.55236 25.9932C4.67552 26.1112 4.82856 26.1933 4.99496 26.2306C5.16136 26.268 5.3348 26.2592 5.49656 26.2052L9.87493 24.7445C12.0163 25.983 14.5066 26.4802 16.9594 26.159C19.4122 25.8379 21.6904 24.7162 23.4407 22.9681C25.191 21.22 26.3155 18.9431 26.6398 16.4907C26.964 14.0383 26.4699 11.5475 25.2341 9.40453C23.9982 7.2616 22.0897 5.58641 19.8047 4.63881C17.5196 3.69121 14.9857 3.52418 12.596 4.16363C10.2064 4.80307 8.0945 6.21326 6.58806 8.17541C5.08161 10.1376 4.2648 12.542 4.26432 15.0158C4.26173 16.8951 4.73252 18.7448 5.63326 20.3942L4.67577 23.744ZM10.6899 23.3354L10.0552 22.9684L9.3598 23.2004L6.22515 24.2462L7.1983 20.8415L7.38172 20.1998L7.06184 19.614C6.29213 18.2046 5.88982 16.6239 5.89203 15.018L5.89203 15.0161C5.89244 12.9007 6.59093 10.8446 7.87915 9.16665C9.16736 7.48873 10.9733 6.28283 13.0168 5.73602C15.0603 5.1892 17.2271 5.33204 19.1812 6.14237C21.1352 6.95269 22.7672 8.38521 23.824 10.2177C24.8808 12.0502 25.3034 14.1802 25.0261 16.2774C24.7488 18.3745 23.7872 20.3215 22.2905 21.8164C20.7937 23.3113 18.8455 24.2705 16.748 24.5451C14.6505 24.8198 12.521 24.3945 10.6899 23.3354ZM12.029 14.3559C12.2046 14.1803 12.4428 14.0816 12.6911 14.0816H18.3092C18.5576 14.0816 18.7957 14.1803 18.9713 14.3559C19.1469 14.5315 19.2456 14.7696 19.2456 15.018C19.2456 15.2663 19.1469 15.5045 18.9713 15.6801C18.7957 15.8557 18.5576 15.9543 18.3092 15.9543H12.6911C12.4428 15.9543 12.2046 15.8557 12.029 15.6801C11.8534 15.5045 11.7548 15.2663 11.7548 15.018C11.7548 14.7696 11.8534 14.5315 12.029 14.3559Z" fill="#28B446"/>
<path id="Vector" d="M16.4365 12.2088C16.4365 11.9605 16.3379 11.7223 16.1623 11.5467C15.9867 11.3711 15.7485 11.2725 15.5002 11.2725C15.2518 11.2725 15.0137 11.3711 14.8381 11.5467C14.6625 11.7223 14.5638 11.9605 14.5638 12.2088L14.5638 17.8269C14.5638 18.0752 14.6625 18.3134 14.8381 18.489C15.0137 18.6646 15.2518 18.7633 15.5002 18.7633C15.7485 18.7633 15.9867 18.6646 16.1623 18.489C16.3379 18.3134 16.4365 18.0752 16.4365 17.8269L16.4365 12.2088Z" fill="#28B446"/>
</g>
</svg>
