<svg width="65" height="65" viewBox="0 0 65 65" fill="none" xmlns="http://www.w3.org/2000/svg">
<g id="Component 20/Frame 1597883333">
<g id="Frame 1597883339">
<g id="vuesax/outline/microphone-slash">
<g id="vuesax/outline/microphone-slash_2">
<g id="microphone-slash">
<path id="Vector" d="M27.1665 32.1667C26.6198 32.1667 26.1665 31.7134 26.1665 31.1667V24.5C26.1665 21.0067 29.0065 18.1667 32.4998 18.1667C35.9932 18.1667 38.8332 21.0067 38.8332 24.5V24.9C38.8332 25.4467 38.3798 25.9 37.8332 25.9C37.2865 25.9 36.8332 25.4467 36.8332 24.9V24.5C36.8332 22.1134 34.8865 20.1667 32.4998 20.1667C30.1132 20.1667 28.1665 22.1134 28.1665 24.5V31.1667C28.1665 31.7134 27.7132 32.1667 27.1665 32.1667Z" fill="#6D6C88"/>
<path id="Vector_2" d="M32.5002 38.1667C30.7135 38.1667 29.0069 37.4067 27.8069 36.0867C27.4335 35.6734 27.4735 35.0467 27.8735 34.6734C28.2869 34.3 28.9135 34.34 29.2869 34.74C30.1002 35.6467 31.2735 36.1667 32.5002 36.1667C34.8869 36.1667 36.8335 34.22 36.8335 31.8334V31.1667C36.8335 30.62 37.2869 30.1667 37.8335 30.1667C38.3802 30.1667 38.8335 30.62 38.8335 31.1667V31.8334C38.8335 35.3267 35.9935 38.1667 32.5002 38.1667Z" fill="#6D6C88"/>
<path id="Vector_3" d="M32.4999 42.8333C29.6599 42.8333 26.9399 41.7666 24.8599 39.8333C24.4599 39.46 24.4333 38.82 24.8066 38.42C25.1933 38.0066 25.8333 37.9933 26.2333 38.3666C27.9399 39.9533 30.1666 40.8333 32.4999 40.8333C37.5666 40.8333 41.6999 36.7 41.6999 31.6333V29.3666C41.6999 28.82 42.1533 28.3666 42.6999 28.3666C43.2466 28.3666 43.6999 28.82 43.6999 29.3666V31.6333C43.6999 37.8066 38.6733 42.8333 32.4999 42.8333Z" fill="#6D6C88"/>
<path id="Vector_4" d="M23.0998 36.6066C22.7131 36.6066 22.3398 36.38 22.1798 35.9933C21.5931 34.6066 21.2998 33.1533 21.2998 31.6333V29.3666C21.2998 28.82 21.7531 28.3666 22.2998 28.3666C22.8465 28.3666 23.2998 28.82 23.2998 29.3666V31.6333C23.2998 32.8733 23.5398 34.0733 24.0198 35.2066C24.2331 35.7133 23.9931 36.3 23.4865 36.5133C23.3665 36.58 23.2331 36.6066 23.0998 36.6066Z" fill="#6D6C88"/>
<path id="Vector_5" d="M21.7266 42.82C21.4733 42.82 21.22 42.7266 21.02 42.5266C20.6333 42.14 20.6333 41.5 21.02 41.1133L42.5533 19.58C42.94 19.1933 43.58 19.1933 43.9666 19.58C44.3533 19.9666 44.3533 20.6066 43.9666 20.9933L22.4466 42.5266C22.2466 42.7266 21.9933 42.82 21.7266 42.82Z" fill="#6D6C88"/>
<path id="Vector_6" d="M31.1665 25.5C30.6198 25.5 30.1665 25.0467 30.1665 24.5V20.5C30.1665 19.9533 30.6198 19.5 31.1665 19.5C31.7132 19.5 32.1665 19.9533 32.1665 20.5V24.5C32.1665 25.0467 31.7132 25.5 31.1665 25.5Z" fill="#6D6C88"/>
<path id="Vector_7" d="M32.5 46.8333C31.9533 46.8333 31.5 46.38 31.5 45.8333V41.8333C31.5 41.2866 31.9533 40.8333 32.5 40.8333C33.0467 40.8333 33.5 41.2866 33.5 41.8333V45.8333C33.5 46.38 33.0467 46.8333 32.5 46.8333Z" fill="#6D6C88"/>
</g>
</g>
</g>
</g>
</g>
</svg>
