<svg width="66" height="65" viewBox="0 0 66 65" fill="none" xmlns="http://www.w3.org/2000/svg">
<g id="Component 20/Frame 1597883333">
<g id="Frame 1597883339">
<g id="vuesax/outline/microphone-2">
<g id="vuesax/outline/microphone-2_2">
<g id="microphone-2">
<path id="Vector" d="M32.9647 38.1669C29.4713 38.1669 26.6313 35.3269 26.6313 31.8336V24.5003C26.6313 21.0069 29.4713 18.1669 32.9647 18.1669C36.458 18.1669 39.298 21.0069 39.298 24.5003V31.8336C39.298 35.3269 36.458 38.1669 32.9647 38.1669ZM32.9647 20.1669C30.578 20.1669 28.6313 22.1136 28.6313 24.5003V31.8336C28.6313 34.2203 30.578 36.1669 32.9647 36.1669C35.3513 36.1669 37.298 34.2203 37.298 31.8336V24.5003C37.298 22.1136 35.3513 20.1669 32.9647 20.1669Z" fill="#6D6C88"/>
<path id="Vector_2" d="M32.9646 42.8332C26.7913 42.8332 21.7646 37.8066 21.7646 31.6332V29.3666C21.7646 28.8199 22.218 28.3666 22.7646 28.3666C23.3113 28.3666 23.7646 28.8199 23.7646 29.3666V31.6332C23.7646 36.6999 27.898 40.8332 32.9646 40.8332C38.0313 40.8332 42.1646 36.6999 42.1646 31.6332V29.3666C42.1646 28.8199 42.618 28.3666 43.1646 28.3666C43.7113 28.3666 44.1646 28.8199 44.1646 29.3666V31.6332C44.1646 37.8066 39.138 42.8332 32.9646 42.8332Z" fill="#6D6C88"/>
<path id="Vector_3" d="M34.8182 26.0733C34.7115 26.0733 34.5915 26.0599 34.4715 26.0199C33.4982 25.6599 32.4315 25.6599 31.4582 26.0199C30.9382 26.2066 30.3648 25.9399 30.1782 25.4199C29.9915 24.8999 30.2582 24.3266 30.7782 24.1399C32.1915 23.6333 33.7515 23.6333 35.1648 24.1399C35.6848 24.3266 35.9515 24.8999 35.7648 25.4199C35.6048 25.8199 35.2182 26.0733 34.8182 26.0733Z" fill="#6D6C88"/>
<path id="Vector_4" d="M34.0315 28.9002C33.9381 28.9002 33.8581 28.8869 33.7648 28.8602C33.2315 28.7135 32.6848 28.7135 32.1515 28.8602C31.6181 29.0069 31.0715 28.6869 30.9248 28.1535C30.7781 27.6335 31.0981 27.0869 31.6314 26.9402C32.4981 26.7002 33.4314 26.7002 34.2981 26.9402C34.8314 27.0869 35.1514 27.6335 35.0048 28.1669C34.8848 28.6069 34.4715 28.9002 34.0315 28.9002Z" fill="#6D6C88"/>
<path id="Vector_5" d="M32.9648 46.8336C32.4182 46.8336 31.9648 46.3802 31.9648 45.8336V41.8336C31.9648 41.2869 32.4182 40.8336 32.9648 40.8336C33.5115 40.8336 33.9648 41.2869 33.9648 41.8336V45.8336C33.9648 46.3802 33.5115 46.8336 32.9648 46.8336Z" fill="#6D6C88"/>
</g>
</g>
</g>
</g>
</g>
</svg>
