<svg width="66" height="65" viewBox="0 0 66 65" fill="none" xmlns="http://www.w3.org/2000/svg">
<g id="Component 21">
<g id="Frame 1597883339">
<g id="Icon/close">
<path id="Union" fill-rule="evenodd" clip-rule="evenodd" d="M35.1619 33.3103L36.2652 34.5239L42.4207 40.6794C42.5366 40.7914 42.6291 40.9253 42.6927 41.0734C42.7563 41.2214 42.7898 41.3807 42.7912 41.5418C42.7926 41.703 42.7619 41.8628 42.7008 42.0119C42.6398 42.1611 42.5497 42.2966 42.4358 42.4105C42.3218 42.5245 42.1863 42.6146 42.0371 42.6756C41.888 42.7366 41.7282 42.7673 41.567 42.7659C41.4059 42.7645 41.2466 42.7311 41.0986 42.6675C40.9505 42.6039 40.8166 42.5114 40.7046 42.3955L33.6043 35.2952L26.1995 42.4372C26.0855 42.551 25.9499 42.6411 25.8007 42.702C25.6515 42.7629 25.4917 42.7935 25.3305 42.792C25.1694 42.7905 25.0101 42.7569 24.8621 42.6932C24.7141 42.6295 24.5802 42.5369 24.4684 42.4209C24.3565 42.3049 24.2688 42.1678 24.2105 42.0176C24.1522 41.8674 24.1244 41.707 24.1287 41.5459C24.133 41.3848 24.1694 41.2262 24.2356 41.0793C24.3019 40.9324 24.3968 40.8002 24.5147 40.6904L30.7804 34.6471L31.9055 33.4536L30.8243 32.2202L24.3969 25.5561C24.283 25.4421 24.193 25.3065 24.1321 25.1573C24.0711 25.0081 24.0405 24.8483 24.042 24.6872C24.0436 24.526 24.0771 24.3668 24.1409 24.2188C24.2046 24.0708 24.2971 23.9369 24.4131 23.825C24.5291 23.7131 24.6662 23.6255 24.8164 23.5672C24.9667 23.5089 25.127 23.481 25.2881 23.4854C25.4492 23.4897 25.6078 23.526 25.7547 23.5923C25.9016 23.6586 26.0338 23.7534 26.1437 23.8713L33.4662 31.4635L41.0959 23.8337C41.2078 23.7178 41.3418 23.6253 41.4898 23.5617C41.6379 23.4981 41.7971 23.4646 41.9583 23.4632C42.1194 23.4618 42.2792 23.4925 42.4284 23.5536C42.5775 23.6146 42.7131 23.7047 42.827 23.8187C42.941 23.9326 43.0311 24.0681 43.0921 24.2173C43.1531 24.3664 43.1838 24.5262 43.1824 24.6874C43.181 24.8485 43.1475 25.0078 43.0839 25.1558C43.0203 25.3039 42.9279 25.4378 42.812 25.5498L36.2652 32.0966L35.1619 33.3103Z" fill="#F54D4D"/>
</g>
</g>
</g>
</svg>
