<svg width="16" height="17" viewBox="0 0 16 17" fill="none" xmlns="http://www.w3.org/2000/svg">
<g id="vuesax/outline/global-search">
<g id="vuesax/outline/global-search_2">
<g id="global-search">
<path id="Vector" d="M7.99967 16.141C4.04634 16.141 0.833008 12.9276 0.833008 8.97428C0.833008 5.02095 4.04634 1.80762 7.99967 1.80762C11.953 1.80762 15.1663 5.02095 15.1663 8.97428C15.1663 9.24762 14.9397 9.47428 14.6663 9.47428C14.393 9.47428 14.1663 9.24762 14.1663 8.97428C14.1663 5.57428 11.3997 2.80762 7.99967 2.80762C4.59967 2.80762 1.83301 5.57428 1.83301 8.97428C1.83301 12.3743 4.59967 15.141 7.99967 15.141C8.27301 15.141 8.49967 15.3676 8.49967 15.641C8.49967 15.9143 8.27301 16.141 7.99967 16.141Z" />
<path id="Vector_2" d="M6.00016 15.4746H5.33349C5.06016 15.4746 4.83349 15.2479 4.83349 14.9746C4.83349 14.7013 5.04682 14.4813 5.32016 14.4746C4.27349 10.9013 4.27349 7.04794 5.32016 3.47461C5.05349 3.46794 4.83349 3.24794 4.83349 2.97461C4.83349 2.70128 5.06016 2.47461 5.33349 2.47461H6.00016C6.16016 2.47461 6.31349 2.55461 6.40683 2.68127C6.50016 2.81461 6.52683 2.98127 6.4735 3.1346C5.22016 6.90127 5.22016 11.0546 6.4735 14.8213C6.52683 14.9746 6.50016 15.1413 6.40683 15.2746C6.31349 15.408 6.16016 15.4746 6.00016 15.4746Z" />
<path id="Vector_3" d="M10.9733 9.47458C10.7 9.47458 10.4733 9.24792 10.4733 8.97458C10.4733 6.98792 10.1533 5.02125 9.52663 3.13458C9.43996 2.87458 9.57996 2.5879 9.83996 2.50124C10.1 2.41457 10.3866 2.55459 10.4733 2.81459C11.1333 4.80126 11.4733 6.87458 11.4733 8.97458C11.4733 9.24792 11.2466 9.47458 10.9733 9.47458Z" />
<path id="Vector_4" d="M8 12.4475C6.13333 12.4475 4.28667 12.1808 2.5 11.6542C2.49333 11.9208 2.27333 12.1408 2 12.1408C1.72667 12.1408 1.5 11.9142 1.5 11.6408V10.9742C1.5 10.8142 1.58 10.6608 1.70667 10.5675C1.84 10.4742 2.00667 10.4475 2.16 10.5008C4.04667 11.1275 6.01333 11.4475 8 11.4475C8.27333 11.4475 8.5 11.6742 8.5 11.9475C8.5 12.2208 8.27333 12.4475 8 12.4475Z" />
<path id="Vector_5" d="M13.9998 7.47421C13.9465 7.47421 13.8931 7.46756 13.8398 7.44756C10.0731 6.19422 5.91979 6.19422 2.15313 7.44756C1.89313 7.53422 1.60646 7.3942 1.51979 7.1342C1.43313 6.8742 1.57313 6.58753 1.83313 6.50086C5.80646 5.17419 10.1798 5.17419 14.1465 6.50086C14.4065 6.58753 14.5465 6.8742 14.4598 7.1342C14.4065 7.34087 14.2065 7.47421 13.9998 7.47421Z" />
<path id="Vector_6" d="M12.1333 15.7413C10.68 15.7413 9.5 14.5613 9.5 13.108C9.5 11.6546 10.68 10.4746 12.1333 10.4746C13.5867 10.4746 14.7667 11.6546 14.7667 13.108C14.7667 14.5613 13.5867 15.7413 12.1333 15.7413ZM12.1333 11.4746C11.2333 11.4746 10.5 12.208 10.5 13.108C10.5 14.008 11.2333 14.7413 12.1333 14.7413C13.0333 14.7413 13.7667 14.008 13.7667 13.108C13.7667 12.208 13.0333 11.4746 12.1333 11.4746Z" />
<path id="Vector_7" d="M14.667 16.1416C14.5403 16.1416 14.4136 16.0949 14.3136 15.9949L13.647 15.3283C13.4536 15.1349 13.4536 14.8149 13.647 14.6216C13.8403 14.4282 14.1603 14.4282 14.3536 14.6216L15.0203 15.2882C15.2136 15.4816 15.2136 15.8016 15.0203 15.9949C14.9203 16.0949 14.7936 16.1416 14.667 16.1416Z" />
</g>
</g>
</g>
</svg>
