<svg width="16" height="16" viewBox="0 0 16 16" fill="none" xmlns="http://www.w3.org/2000/svg">
<path d="M7.99992 15.1673C4.04659 15.1673 0.833252 11.954 0.833252 8.00065C0.833252 4.04732 4.04659 0.833984 7.99992 0.833984C11.9533 0.833984 15.1666 4.04732 15.1666 8.00065C15.1666 8.27398 14.9399 8.50065 14.6666 8.50065C14.3933 8.50065 14.1666 8.27398 14.1666 8.00065C14.1666 4.60065 11.3999 1.83398 7.99992 1.83398C4.59992 1.83398 1.83325 4.60065 1.83325 8.00065C1.83325 11.4007 4.59992 14.1673 7.99992 14.1673C8.27325 14.1673 8.49992 14.394 8.49992 14.6673C8.49992 14.9407 8.27325 15.1673 7.99992 15.1673Z" />
<path d="M6.00016 14.5H5.33349C5.06016 14.5 4.83349 14.2733 4.83349 14C4.83349 13.7267 5.04682 13.5067 5.32016 13.5C4.27349 9.92667 4.27349 6.07333 5.32016 2.5C5.05349 2.49333 4.83349 2.27333 4.83349 2C4.83349 1.72667 5.06016 1.5 5.33349 1.5H6.00016C6.16016 1.5 6.31349 1.58 6.40683 1.70667C6.50016 1.84 6.52683 2.00666 6.4735 2.15999C5.22016 5.92666 5.22016 10.08 6.4735 13.8467C6.52683 14 6.50016 14.1667 6.40683 14.3C6.31349 14.4333 6.16016 14.5 6.00016 14.5Z" />
<path d="M10.9733 8.50095C10.7 8.50095 10.4733 8.27429 10.4733 8.00095C10.4733 6.01429 10.1533 4.04761 9.52663 2.16095C9.43996 1.90095 9.57996 1.61427 9.83996 1.5276C10.1 1.44094 10.3866 1.58096 10.4733 1.84096C11.1333 3.82763 11.4733 5.90095 11.4733 8.00095C11.4733 8.27429 11.2466 8.50095 10.9733 8.50095Z"  />
<path d="M8 11.4739C6.13333 11.4739 4.28667 11.2072 2.5 10.6805C2.49333 10.9472 2.27333 11.1672 2 11.1672C1.72667 11.1672 1.5 10.9405 1.5 10.6672V10.0005C1.5 9.84052 1.58 9.6872 1.70667 9.59387C1.84 9.50053 2.00667 9.47384 2.16 9.52718C4.04667 10.1538 6.01333 10.4739 8 10.4739C8.27333 10.4739 8.5 10.7005 8.5 10.9739C8.5 11.2472 8.27333 11.4739 8 11.4739Z"  />
<path d="M14 6.4996C13.9467 6.4996 13.8934 6.49295 13.84 6.47295C10.0734 5.21961 5.92004 5.21961 2.15337 6.47295C1.89337 6.55961 1.6067 6.41959 1.52004 6.15959C1.43337 5.89959 1.57337 5.61292 1.83337 5.52625C5.80671 4.19958 10.18 4.19958 14.1467 5.52625C14.4067 5.61292 14.5467 5.89959 14.46 6.15959C14.4067 6.36626 14.2067 6.4996 14 6.4996Z"  />
<path d="M12.1333 14.7667C10.68 14.7667 9.5 13.5867 9.5 12.1333C9.5 10.68 10.68 9.5 12.1333 9.5C13.5867 9.5 14.7667 10.68 14.7667 12.1333C14.7667 13.5867 13.5867 14.7667 12.1333 14.7667ZM12.1333 10.5C11.2333 10.5 10.5 11.2333 10.5 12.1333C10.5 13.0333 11.2333 13.7667 12.1333 13.7667C13.0333 13.7667 13.7667 13.0333 13.7667 12.1333C13.7667 11.2333 13.0333 10.5 12.1333 10.5Z"  />
<path d="M14.6667 15.167C14.54 15.167 14.4134 15.1203 14.3134 15.0203L13.6467 14.3537C13.4534 14.1603 13.4534 13.8403 13.6467 13.647C13.84 13.4536 14.16 13.4536 14.3534 13.647L15.02 14.3136C15.2134 14.507 15.2134 14.827 15.02 15.0203C14.92 15.1203 14.7934 15.167 14.6667 15.167Z"  />
</svg>
